<?xml version="1.0" encoding="utf-8"?>
<svg viewBox="0 0 75 75" xmlns="http://www.w3.org/2000/svg">
  <rect width="75" height="75" rx="12" ry="12" style="fill: white;"/>
  <g transform="matrix(1, 0, 0, 1, -12.5, -12.500001907348633)">
    <path d="M 61.88 64.26 L 53.09 64.26 L 53.09 58.36 C 53.09 55.89 51.08 53.88 48.61 53.88 L 44.6 53.88 C 43.24 53.88 42.13 52.77 42.13 51.41 L 42.13 36.01 L 74.16 36.01 C 76.83 36.01 79 38.18 79 40.85 L 79 47.13 C 79 56.58 71.32 64.26 61.88 64.26 Z M 55.09 62.26 L 61.88 62.26 C 70.22 62.26 77 55.47 77 47.13 L 77 40.85 C 77 39.28 75.73 38.01 74.16 38.01 L 44.13 38.01 L 44.13 51.41 C 44.13 51.67 44.34 51.88 44.6 51.88 L 48.61 51.88 C 52.18 51.88 55.09 54.79 55.09 58.36 L 55.09 62.26 Z"/>
    <path d="M 51.09 64.26 L 21 64.26 L 21 63.26 C 21 57.94 23.16 52.73 26.92 48.96 L 40.13 35.74 L 40.13 51.41 C 40.13 53.87 42.14 55.88 44.6 55.88 L 48.61 55.88 C 49.98 55.88 51.09 56.99 51.09 58.36 L 51.09 64.26 Z M 23.03 62.26 L 49.09 62.26 L 49.09 58.36 C 49.09 58.09 48.88 57.88 48.61 57.88 L 44.6 57.88 C 41.03 57.88 38.13 54.98 38.13 51.41 L 38.13 40.58 L 28.34 50.38 C 25.18 53.54 23.28 57.82 23.03 62.26 Z"/>
    <path d="M 79 47.89 L 59.54 47.89 C 57.59 47.89 56 46.3 56 44.35 C 56 42.4 57.59 40.81 59.54 40.81 L 79 40.81 L 79 47.89 Z M 59.54 42.81 C 58.69 42.81 58 43.5 58 44.35 C 58 45.2 58.69 45.89 59.54 45.89 L 77 45.89 L 77 42.81 L 59.54 42.81 Z"/>
  </g>
</svg>